<svg width="0" height="0" class="hidden">
  <symbol fill_="none" xmlns="http://www.w3.org/2000/svg" viewBox="0 0 14 14" id="clock">
    <g opacity="0.8">
      <path fill-rule="evenodd" clip-rule="evenodd" d="M7 12C8.32608 12 9.59785 11.4732 10.5355 10.5355C11.4732 9.59785 12 8.32608 12 7C12 5.67392 11.4732 4.40215 10.5355 3.46447C9.59785 2.52678 8.32608 2 7 2C5.67392 2 4.40215 2.52678 3.46447 3.46447C2.52678 4.40215 2 5.67392 2 7C2 8.32608 2.52678 9.59785 3.46447 10.5355C4.40215 11.4732 5.67392 12 7 12V12ZM7.625 4.5C7.625 4.33424 7.55915 4.17527 7.44194 4.05806C7.32473 3.94085 7.16576 3.875 7 3.875C6.83424 3.875 6.67527 3.94085 6.55806 4.05806C6.44085 4.17527 6.375 4.33424 6.375 4.5V7C6.37504 7.16575 6.44091 7.32469 6.55813 7.44187L8.32563 9.21C8.38369 9.26807 8.45263 9.31413 8.5285 9.34556C8.60437 9.37699 8.68569 9.39316 8.76781 9.39316C8.84993 9.39316 8.93125 9.37699 9.00712 9.34556C9.08299 9.31413 9.15193 9.26807 9.21 9.21C9.26807 9.15193 9.31413 9.08299 9.34556 9.00712C9.37699 8.93125 9.39316 8.84993 9.39316 8.76781C9.39316 8.68569 9.37699 8.60437 9.34556 8.5285C9.31413 8.45263 9.26807 8.38369 9.21 8.32563L7.625 6.74125V4.5Z" fill_="white"></path>
    </g>
  </symbol>
  <symbol fill_="none" xmlns="http://www.w3.org/2000/svg" viewBox="0 0 14 14" id="location-marker">
    <g opacity="0.8">
      <path fill-rule="evenodd" clip-rule="evenodd" d="M3.53502 2.83503C4.454 1.91606 5.7004 1.39978 7.00002 1.39978C8.29965 1.39978 9.54605 1.91606 10.465 2.83503C11.384 3.75401 11.9003 5.0004 11.9003 6.30003C11.9003 7.59966 11.384 8.84606 10.465 9.76503L7.00002 13.23L3.53502 9.76503C3.07996 9.31002 2.71899 8.76982 2.47271 8.17529C2.22643 7.58077 2.09967 6.94355 2.09967 6.30003C2.09967 5.65651 2.22643 5.01929 2.47271 4.42477C2.71899 3.83024 3.07996 3.29004 3.53502 2.83503V2.83503ZM7.00002 7.70003C7.37133 7.70003 7.72742 7.55253 7.98997 7.28998C8.25253 7.02743 8.40003 6.67133 8.40003 6.30003C8.40003 5.92873 8.25253 5.57263 7.98997 5.31008C7.72742 5.04753 7.37133 4.90003 7.00002 4.90003C6.62872 4.90003 6.27263 5.04753 6.01008 5.31008C5.74752 5.57263 5.60002 5.92873 5.60002 6.30003C5.60002 6.67133 5.74752 7.02743 6.01008 7.28998C6.27263 7.55253 6.62872 7.70003 7.00002 7.70003Z" fill_="white"></path>
    </g>
  </symbol>
  <symbol fill_="none" xmlns="http://www.w3.org/2000/svg" viewBox="0 0 14 14" id="phone">
    <g opacity="0.8">
      <path d="M1.75 2.91667C1.75 2.60725 1.87292 2.3105 2.09171 2.09171C2.3105 1.87292 2.60725 1.75 2.91667 1.75H4.83C4.95238 1.75009 5.07163 1.78867 5.17087 1.86028C5.27012 1.93189 5.34433 2.03289 5.383 2.149L6.25683 4.76992C6.30111 4.90311 6.29587 5.04781 6.24208 5.17746C6.1883 5.30711 6.08956 5.41301 5.964 5.47575L4.64742 6.13492C5.29277 7.56323 6.43677 8.70723 7.86508 9.35258L8.52425 8.036C8.58698 7.91044 8.69289 7.8117 8.82254 7.75791C8.95219 7.70413 9.09689 7.69889 9.23008 7.74317L11.851 8.617C11.9672 8.6557 12.0683 8.73 12.1399 8.82936C12.2115 8.92872 12.25 9.0481 12.25 9.17058V11.0833C12.25 11.3928 12.1271 11.6895 11.9083 11.9083C11.6895 12.1271 11.3928 12.25 11.0833 12.25H10.5C5.66767 12.25 1.75 8.33233 1.75 3.5V2.91667Z" fill_="white" stroke="#121212" stroke-linecap="round" stroke-linejoin="round"></path>
    </g>
  </symbol>

    <symbol fill_="none" xmlns="http://www.w3.org/2000/svg" viewBox="0 0 14 14" id="pinterest">
    <path d="M7 0.875C3.61758 0.875 0.875 3.61758 0.875 7C0.875 9.50742 2.38438 11.6621 4.5418 12.6109C4.52539 12.1844 4.53906 11.6703 4.64844 11.2055C4.76602 10.7078 5.43594 7.8668 5.43594 7.8668C5.43594 7.8668 5.23906 7.47578 5.23906 6.89883C5.23906 5.99101 5.76406 5.31289 6.42031 5.31289C6.97813 5.31289 7.24609 5.73125 7.24609 6.23164C7.24609 6.79219 6.88789 7.62891 6.70469 8.40547C6.55156 9.05625 7.03008 9.58398 7.67266 9.58398C8.83203 9.58398 9.61406 8.09375 9.61406 6.32734C9.61406 4.98476 8.70898 3.98125 7.06562 3.98125C5.20898 3.98125 4.04961 5.36758 4.04961 6.91523C4.04961 7.44844 4.2082 7.82578 4.4543 8.11562C4.56641 8.24961 4.58281 8.3043 4.5418 8.45742C4.51172 8.56953 4.44609 8.84023 4.41602 8.94961C4.375 9.10547 4.24922 9.16015 4.10977 9.10273C3.25391 8.75273 2.85469 7.81758 2.85469 6.76211C2.85469 5.02305 4.32305 2.93672 7.23242 2.93672C9.57031 2.93672 11.1098 4.6293 11.1098 6.44492C11.1098 8.84844 9.77266 10.6422 7.80391 10.6422C7.14219 10.6422 6.52148 10.284 6.3082 9.8793C6.3082 9.8793 5.95273 11.2902 5.87617 11.5637C5.74766 12.0367 5.49336 12.507 5.26094 12.8762C5.81055 13.0375 6.39297 13.1277 6.99727 13.1277C10.3797 13.1277 13.1223 10.3852 13.1223 7.00273C13.125 3.61758 10.3824 0.875 7 0.875Z" fill_="white"></path>
  </symbol>
  <symbol fill_="none" xmlns="http://www.w3.org/2000/svg" viewBox="0 0 14 14" id="instagram">
    <path d="M7 5.17751C5.99649 5.17751 5.17754 5.99645 5.17754 6.99997C5.17754 8.00348 5.99649 8.82243 7 8.82243C8.00352 8.82243 8.82247 8.00348 8.82247 6.99997C8.82247 5.99645 8.00352 5.17751 7 5.17751ZM12.466 6.99997C12.466 6.24528 12.4729 5.49743 12.4305 4.74411C12.3881 3.86911 12.1885 3.09254 11.5486 2.4527C10.9074 1.81149 10.1322 1.61325 9.25723 1.57087C8.50254 1.52848 7.75469 1.53532 7.00137 1.53532C6.24668 1.53532 5.49883 1.52848 4.74551 1.57087C3.87051 1.61325 3.09395 1.81286 2.45411 2.4527C1.81289 3.09391 1.61465 3.86911 1.57227 4.74411C1.52989 5.49879 1.53672 6.24665 1.53672 6.99997C1.53672 7.75329 1.52989 8.5025 1.57227 9.25582C1.61465 10.1308 1.81426 10.9074 2.45411 11.5472C3.09532 12.1884 3.87051 12.3867 4.74551 12.4291C5.5002 12.4714 6.24805 12.4646 7.00137 12.4646C7.75606 12.4646 8.50391 12.4714 9.25723 12.4291C10.1322 12.3867 10.9088 12.1871 11.5486 11.5472C12.1898 10.906 12.3881 10.1308 12.4305 9.25582C12.4742 8.5025 12.466 7.75465 12.466 6.99997V6.99997ZM7 9.80407C5.44825 9.80407 4.1959 8.55172 4.1959 6.99997C4.1959 5.44821 5.44825 4.19586 7 4.19586C8.55176 4.19586 9.80411 5.44821 9.80411 6.99997C9.80411 8.55172 8.55176 9.80407 7 9.80407ZM9.91895 4.7359C9.55665 4.7359 9.26407 4.44333 9.26407 4.08102C9.26407 3.71872 9.55665 3.42614 9.91895 3.42614C10.2813 3.42614 10.5738 3.71872 10.5738 4.08102C10.5739 4.16705 10.5571 4.25226 10.5242 4.33176C10.4913 4.41126 10.4431 4.4835 10.3823 4.54433C10.3214 4.60517 10.2492 4.6534 10.1697 4.68627C10.0902 4.71915 10.005 4.73601 9.91895 4.7359V4.7359Z" fill_="white"></path>
  </symbol>
  <symbol fill_="none" xmlns="http://www.w3.org/2000/svg" viewBox="0 0 14 14" id="twitter">
    <path d="M13.4531 2.99414C12.9774 3.20469 12.4688 3.34688 11.9328 3.4125C12.4797 3.08438 12.9008 2.56484 13.0977 1.94687C12.5863 2.25039 12.0203 2.47187 11.416 2.58945C10.932 2.07266 10.243 1.75 9.48282 1.75C8.01993 1.75 6.83595 2.93672 6.83595 4.39961C6.83595 4.60742 6.85782 4.80977 6.90431 5.00391C4.70314 4.89453 2.75079 3.83906 1.4465 2.23398C1.21954 2.625 1.08829 3.08164 1.08829 3.56562C1.08829 4.48437 1.55861 5.29648 2.26954 5.77227C1.83204 5.76133 1.42189 5.64102 1.06642 5.44141V5.47422C1.06642 6.75937 1.9797 7.82852 3.19103 8.07188C2.96954 8.13203 2.73439 8.16484 2.49376 8.16484C2.32423 8.16484 2.15743 8.14844 1.99611 8.11562C2.33243 9.16836 3.31134 9.93398 4.47072 9.95586C3.56564 10.6668 2.42267 11.0906 1.18126 11.0906C0.967981 11.0906 0.757434 11.077 0.549622 11.0523C1.7172 11.8125 3.109 12.25 4.60197 12.25C9.47736 12.25 12.1406 8.21133 12.1406 4.70859C12.1406 4.59375 12.1379 4.47891 12.1324 4.3668C12.6492 3.99219 13.0977 3.52734 13.4531 2.99414Z" fill_="white"></path>
  </symbol>
  <symbol fill_="none" xmlns="http://www.w3.org/2000/svg" viewBox="0 0 14 14" id="facebook">
    <path d="M13.0667 7.03693C13.0667 3.6652 10.3513 0.93335 6.99999 0.93335C3.64864 0.93335 0.933319 3.6652 0.933319 7.03693C0.933319 10.0833 3.15181 12.6084 6.05207 13.0667V8.80131H4.51094V7.03693H6.05207V5.69218C6.05207 4.16259 6.95718 3.31768 8.34346 3.31768C9.00737 3.31768 9.70161 3.4368 9.70161 3.4368V4.93809H8.93643C8.18299 4.93809 7.9479 5.40865 7.9479 5.89128V7.03693H9.63042L9.36134 8.80131H7.9479V13.0667C10.8482 12.6084 13.0667 10.0833 13.0667 7.03693Z" fill_="white"></path>
  </symbol>

  <symbol fill_="none" xmlns="http://www.w3.org/2000/svg" viewBox="0 0 24 24" id="globe">
    <path d="M3.055 11H5C5.53043 11 6.03914 11.2107 6.41421 11.5858C6.78929 11.9609 7 12.4696 7 13V14C7 14.5304 7.21071 15.0391 7.58579 15.4142C7.96086 15.7893 8.46957 16 9 16C9.53043 16 10.0391 16.2107 10.4142 16.5858C10.7893 16.9609 11 17.4696 11 18V20.945M8 3.935V5.5C8 6.16304 8.26339 6.79893 8.73223 7.26777C9.20107 7.73661 9.83696 8 10.5 8H11C11.5304 8 12.0391 8.21071 12.4142 8.58579C12.7893 8.96086 13 9.46957 13 10C13 10.5304 13.2107 11.0391 13.5858 11.4142C13.9609 11.7893 14.4696 12 15 12C15.5304 12 16.0391 11.7893 16.4142 11.4142C16.7893 11.0391 17 10.5304 17 10C17 9.46957 17.2107 8.96086 17.5858 8.58579C17.9609 8.21071 18.4696 8 19 8H20.064M15 20.488V18C15 17.4696 15.2107 16.9609 15.5858 16.5858C15.9609 16.2107 16.4696 16 17 16H20.064L15 20.488ZM21 12C21 13.1819 20.7672 14.3522 20.3149 15.4442C19.8626 16.5361 19.1997 17.5282 18.364 18.364C17.5282 19.1997 16.5361 19.8626 15.4442 20.3149C14.3522 20.7672 13.1819 21 12 21C10.8181 21 9.64778 20.7672 8.55585 20.3149C7.46392 19.8626 6.47177 19.1997 5.63604 18.364C4.80031 17.5282 4.13738 16.5361 3.68508 15.4442C3.23279 14.3522 3 13.1819 3 12C3 9.61305 3.94821 7.32387 5.63604 5.63604C7.32387 3.94821 9.61305 3 12 3C14.3869 3 16.6761 3.94821 18.364 5.63604C20.0518 7.32387 21 9.61305 21 12Z" stroke="#121212" stroke-linecap="round" stroke-linejoin="round"></path>
  </symbol>
  <symbol fill_="none" xmlns="http://www.w3.org/2000/svg" viewBox="0 0 24 24" id="search">
    <path d="M21 21L15 15L21 21ZM17 10C17 10.9193 16.8189 11.8295 16.4672 12.6788C16.1154 13.5281 15.5998 14.2997 14.9497 14.9497C14.2997 15.5998 13.5281 16.1154 12.6788 16.4672C11.8295 16.8189 10.9193 17 10 17C9.08075 17 8.1705 16.8189 7.32122 16.4672C6.47194 16.1154 5.70026 15.5998 5.05025 14.9497C4.40024 14.2997 3.88463 13.5281 3.53284 12.6788C3.18106 11.8295 3 10.9193 3 10C3 8.14348 3.7375 6.36301 5.05025 5.05025C6.36301 3.7375 8.14348 3 10 3C11.8565 3 13.637 3.7375 14.9497 5.05025C16.2625 6.36301 17 8.14348 17 10Z" stroke="#121212" stroke-linecap="round" stroke-linejoin="round"></path>
  </symbol>
  <symbol fill_="none" xmlns="http://www.w3.org/2000/svg" viewBox="0 0 24 24" id="user">
    <g filter="url(#filter0_d_3706_10324)">
      <path d="M16 7C16 8.06087 15.5786 9.07828 14.8284 9.82843C14.0783 10.5786 13.0609 11 12 11C10.9391 11 9.92172 10.5786 9.17157 9.82843C8.42143 9.07828 8 8.06087 8 7C8 5.93913 8.42143 4.92172 9.17157 4.17157C9.92172 3.42143 10.9391 3 12 3C13.0609 3 14.0783 3.42143 14.8284 4.17157C15.5786 4.92172 16 5.93913 16 7V7Z" stroke="#121212" stroke-linecap="round" stroke-linejoin="round"></path>
      <path d="M12 14C10.1435 14 8.36301 14.7375 7.05025 16.0503C5.7375 17.363 5 19.1435 5 21H19C19 19.1435 18.2625 17.363 16.9497 16.0503C15.637 14.7375 13.8565 14 12 14V14Z" stroke="#121212" stroke-linecap="round" stroke-linejoin="round"></path>
    </g>
    <defs>
      <filter id="filter0_d_3706_10324" x="-4" y="0" width="32" height="32" filterUnits="userSpaceOnUse" color-interpolation-filters="sRGB">
        <feFlood flood-opacity="0" result="BackgroundImageFix"></feFlood>
        <feColorMatrix in="SourceAlpha" type="matrix" values="0 0 0 0 0 0 0 0 0 0 0 0 0 0 0 0 0 0 127 0" result="hardAlpha"></feColorMatrix>
        <feComposite in2="hardAlpha" operator="out"></feComposite>
        <feColorMatrix type="matrix" values="0 0 0 0 0 0 0 0 0 0 0 0 0 0 0 0 0 0 0.25 0"></feColorMatrix>
        <feBlend mode="normal" in2="BackgroundImageFix" result="effect1_dropShadow_3706_10324"></feBlend>
        <feBlend mode="normal" in="SourceGraphic" in2="effect1_dropShadow_3706_10324" result="shape"></feBlend>
      </filter>
    </defs>
  </symbol>
  <symbol fill_="none" xmlns="http://www.w3.org/2000/svg" viewBox="0 0 24 24" id="shopping-bag">
    <path d="M16 11V7C16 5.93913 15.5786 4.92172 14.8284 4.17157C14.0783 3.42143 13.0609 3 12 3C10.9391 3 9.92172 3.42143 9.17157 4.17157C8.42143 4.92172 8 5.93913 8 7V11H16ZM5 9H19L20 21H4L5 9Z" stroke="#121212" stroke-linecap="round" stroke-linejoin="round"></path>
  </symbol>

    <symbol fill_="none" xmlns="http://www.w3.org/2000/svg" viewBox="0 0 40 40" id="support">
    <g opacity="0.8">
      <path d="M30.6067 9.39333L24.7133 15.2867L30.6067 9.39333ZM24.7133 24.7133L30.6067 30.6067L24.7133 24.7133ZM15.2867 15.2867L9.39333 9.39333L15.2867 15.2867ZM15.2867 24.7133L9.39333 30.6067L15.2867 24.7133ZM35 20C35 21.9698 34.612 23.9204 33.8582 25.7403C33.1044 27.5601 31.9995 29.2137 30.6066 30.6066C29.2137 31.9995 27.5601 33.1044 25.7403 33.8582C23.9204 34.612 21.9698 35 20 35C18.0302 35 16.0796 34.612 14.2597 33.8582C12.4399 33.1044 10.7863 31.9995 9.3934 30.6066C8.00052 29.2137 6.89563 27.5601 6.14181 25.7403C5.38799 23.9204 5 21.9698 5 20C5 16.0218 6.58035 12.2064 9.3934 9.3934C12.2064 6.58035 16.0218 5 20 5C23.9782 5 27.7936 6.58035 30.6066 9.3934C33.4196 12.2064 35 16.0218 35 20ZM26.6667 20C26.6667 21.7681 25.9643 23.4638 24.714 24.714C23.4638 25.9643 21.7681 26.6667 20 26.6667C18.2319 26.6667 16.5362 25.9643 15.286 24.714C14.0357 23.4638 13.3333 21.7681 13.3333 20C13.3333 18.2319 14.0357 16.5362 15.286 15.286C16.5362 14.0357 18.2319 13.3333 20 13.3333C21.7681 13.3333 23.4638 14.0357 24.714 15.286C25.9643 16.5362 26.6667 18.2319 26.6667 20V20Z" stroke="#121212" stroke-linecap="round" stroke-linejoin="round"></path>
    </g>
  </symbol>
  <symbol fill_="none" xmlns="http://www.w3.org/2000/svg" viewBox="0 0 40 40" id="refresh">
    <g opacity="0.8">
      <path d="M7.63666 14.9999H6.66666V6.66659L7.63666 14.9999ZM7.63666 14.9999C8.74307 12.2635 10.7261 9.97143 13.275 8.48302C15.8239 6.99461 18.7947 6.39394 21.7216 6.77515C24.6485 7.15637 27.3663 8.49791 29.4489 10.5895C31.5316 12.6812 32.8614 15.4047 33.23 18.3333M7.63666 14.9999H15M32.365 24.9999H33.3333V33.3333L32.365 24.9999ZM32.365 24.9999C31.257 27.7348 29.2734 30.025 26.7247 31.5121C24.1761 32.9992 21.2062 33.5991 18.2802 33.218C15.3541 32.837 12.637 31.4964 10.5542 29.4061C8.47144 27.3159 7.14058 24.594 6.76999 21.6666M32.365 24.9999H25" stroke="#121212" stroke-linecap="round" stroke-linejoin="round"></path>
    </g>
  </symbol>
  <symbol fill_="none" xmlns="http://www.w3.org/2000/svg" viewBox="0 0 40 40" id="truck">
    <g opacity="0.8">
      <path d="M21.6667 26.6667V10C21.6667 9.55801 21.4911 9.13409 21.1785 8.82153C20.8659 8.50897 20.442 8.33337 20 8.33337H6.66667C6.22464 8.33337 5.80072 8.50897 5.48816 8.82153C5.17559 9.13409 5 9.55801 5 10V26.6667C5 27.1087 5.17559 27.5327 5.48816 27.8452C5.80072 28.1578 6.22464 28.3334 6.66667 28.3334H8.33333M21.6667 26.6667C21.6667 27.1087 21.4911 27.5327 21.1785 27.8452C20.8659 28.1578 20.442 28.3334 20 28.3334H15M21.6667 26.6667V13.3334C21.6667 12.8913 21.8423 12.4674 22.1548 12.1549C22.4674 11.8423 22.8913 11.6667 23.3333 11.6667H27.6433C28.0853 11.6668 28.5092 11.8425 28.8217 12.155L34.5117 17.845C34.8242 18.1575 34.9999 18.5814 35 19.0234V26.6667C35 27.1087 34.8244 27.5327 34.5118 27.8452C34.1993 28.1578 33.7754 28.3334 33.3333 28.3334H31.6667M21.6667 26.6667C21.6667 27.1087 21.8423 27.5327 22.1548 27.8452C22.4674 28.1578 22.8913 28.3334 23.3333 28.3334H25M8.33333 28.3334C8.33333 29.2174 8.68452 30.0653 9.30964 30.6904C9.93477 31.3155 10.7826 31.6667 11.6667 31.6667C12.5507 31.6667 13.3986 31.3155 14.0237 30.6904C14.6488 30.0653 15 29.2174 15 28.3334M8.33333 28.3334C8.33333 27.4493 8.68452 26.6015 9.30964 25.9764C9.93477 25.3512 10.7826 25 11.6667 25C12.5507 25 13.3986 25.3512 14.0237 25.9764C14.6488 26.6015 15 27.4493 15 28.3334M31.6667 28.3334C31.6667 29.2174 31.3155 30.0653 30.6904 30.6904C30.0652 31.3155 29.2174 31.6667 28.3333 31.6667C27.4493 31.6667 26.6014 31.3155 25.9763 30.6904C25.3512 30.0653 25 29.2174 25 28.3334M31.6667 28.3334C31.6667 27.4493 31.3155 26.6015 30.6904 25.9764C30.0652 25.3512 29.2174 25 28.3333 25C27.4493 25 26.6014 25.3512 25.9763 25.9764C25.3512 26.6015 25 27.4493 25 28.3334" stroke="#121212" stroke-linecap="round" stroke-linejoin="round"></path>
    </g>
  </symbol>

  <symbol fill_="none" xmlns="http://www.w3.org/2000/svg" viewBox="0 0 14 14" id="star">
    <path d="M6.33431 2.04889C6.54431 1.40419 7.45641 1.40419 7.66571 2.04889L8.41471 4.35329C8.46047 4.49364 8.54942 4.61592 8.66886 4.70267C8.78829 4.78941 8.93209 4.83618 9.07971 4.83629H11.5031C12.1814 4.83629 12.4628 5.70429 11.9147 6.10329L9.95471 7.52709C9.83503 7.61391 9.74591 7.7364 9.70014 7.87699C9.65437 8.01758 9.65428 8.16905 9.69991 8.30969L10.4489 10.6141C10.6589 11.2588 9.92041 11.7957 9.37091 11.3967L7.41091 9.97289C7.29135 9.8861 7.1474 9.83935 6.99966 9.83935C6.85192 9.83935 6.70796 9.8861 6.58841 9.97289L4.62841 11.3967C4.07961 11.7957 3.34181 11.2588 3.55111 10.6141L4.30011 8.30969C4.34573 8.16905 4.34565 8.01758 4.29987 7.87699C4.2541 7.7364 4.16498 7.61391 4.04531 7.52709L2.08601 6.10399C1.53791 5.70499 1.82001 4.83699 2.49761 4.83699H4.92031C5.06804 4.83703 5.212 4.79033 5.33157 4.70357C5.45115 4.61681 5.54021 4.49445 5.58601 4.35399L6.33501 2.04959L6.33431 2.04889Z" fill_="#E6E6E6"></path>
  </symbol>
</svg>